<svg xmlns="http://www.w3.org/2000/svg" xmlns:xlink="http://www.w3.org/1999/xlink" width="2000" zoomAndPan="magnify" viewBox="0 0 1500 1499.999933" height="2000" preserveAspectRatio="xMidYMid meet" version="1.0"><defs><g/><clipPath id="7c638b80f5"><path d="M 765 9 L 918.960938 9 L 918.960938 199 L 765 199 Z M 765 9 " clip-rule="nonzero"/></clipPath><clipPath id="832ef86b33"><rect x="0" width="919" y="0" height="275"/></clipPath><clipPath id="1ff3c1b353"><rect x="0" width="918" y="0" height="219"/></clipPath></defs><rect x="-150" width="1800" fill="#ffffff" y="-149.999993" height="1799.99992" fill-opacity="1"/><rect x="-150" width="1800" fill="#0a4a1a" y="-149.999993" height="1799.99992" fill-opacity="1"/><g transform="matrix(1, 0, 0, 1, 288, 526)"><g clip-path="url(#832ef86b33)"><g fill="#fffff6" fill-opacity="1"><g transform="translate(0.872733, 196.040253)"><g><path d="M 85.40625 -191.078125 C 92.15625 -191.078125 97.859375 -190.300781 102.515625 -188.75 C 107.171875 -187.195312 111.960938 -185.144531 116.890625 -182.59375 C 122.367188 -179.675781 126.65625 -178.21875 129.75 -178.21875 C 131.757812 -178.21875 133.3125 -179.128906 134.40625 -180.953125 C 135.5 -182.773438 136.414062 -186.148438 137.15625 -191.078125 L 142.078125 -191.078125 L 142.078125 -128.390625 L 137.15625 -128.390625 C 136.050781 -138.054688 133.398438 -146.769531 129.203125 -154.53125 C 125.003906 -162.289062 119.800781 -168.359375 113.59375 -172.734375 C 107.394531 -177.117188 100.738281 -179.3125 93.625 -179.3125 C 84.675781 -179.3125 76.828125 -176.023438 70.078125 -169.453125 C 63.691406 -163.066406 58.71875 -153.988281 55.15625 -142.21875 C 51.601562 -130.445312 49.828125 -114.15625 49.828125 -93.34375 C 49.828125 -80.382812 50.691406 -67.5625 52.421875 -54.875 C 54.160156 -42.195312 58.128906 -31.476562 64.328125 -22.71875 C 67.617188 -18.15625 71.632812 -14.550781 76.375 -11.90625 C 81.125 -9.257812 86.414062 -7.9375 92.25 -7.9375 C 101.738281 -7.9375 109.992188 -10.445312 117.015625 -15.46875 C 124.046875 -20.488281 132.398438 -28.925781 142.078125 -40.78125 L 142.078125 -26.828125 C 135.328125 -16.972656 126.929688 -9.351562 116.890625 -3.96875 C 106.847656 1.414062 95.988281 4.109375 84.3125 4.109375 C 69.351562 4.109375 56.078125 0.140625 44.484375 -7.796875 C 32.890625 -15.734375 23.851562 -26.773438 17.375 -40.921875 C 10.90625 -55.066406 7.671875 -71.265625 7.671875 -89.515625 C 7.671875 -108.492188 11.09375 -125.738281 17.9375 -141.25 C 24.78125 -156.769531 34.128906 -168.953125 45.984375 -177.796875 C 57.847656 -186.648438 70.988281 -191.078125 85.40625 -191.078125 Z M 85.40625 -191.078125 "/></g></g></g><g fill="#fffff6" fill-opacity="1"><g transform="translate(139.66018, 196.040253)"><g><path d="M 78.84375 -181.765625 L 76.921875 -181.765625 C 66.335938 -181.765625 61.046875 -176.109375 61.046875 -164.796875 L 61.046875 -102.109375 L 116.0625 -102.109375 L 116.0625 -163.96875 C 116.0625 -170.363281 114.875 -174.835938 112.5 -177.390625 C 110.132812 -179.941406 106.210938 -181.398438 100.734375 -181.765625 L 98.28125 -181.765625 L 98.28125 -186.703125 L 171.375 -186.703125 L 171.375 -181.765625 L 168.625 -181.765625 C 163.695312 -181.398438 160 -179.894531 157.53125 -177.25 C 155.070312 -174.601562 153.84375 -170.453125 153.84375 -164.796875 L 153.84375 -23.546875 C 153.84375 -16.609375 155.164062 -11.769531 157.8125 -9.03125 C 160.457031 -6.289062 164.519531 -4.921875 170 -4.921875 L 171.375 -4.921875 L 171.375 0 L 98.28125 0 L 98.28125 -4.921875 L 99.921875 -4.921875 C 105.578125 -4.921875 109.679688 -6.289062 112.234375 -9.03125 C 114.785156 -11.769531 116.0625 -16.609375 116.0625 -23.546875 L 116.0625 -90.34375 L 61.046875 -90.34375 L 61.046875 -23 C 61.046875 -16.789062 62.320312 -12.222656 64.875 -9.296875 C 67.4375 -6.378906 71.363281 -4.921875 76.65625 -4.921875 L 78.84375 -4.921875 L 78.84375 0 L 5.46875 0 L 5.46875 -4.921875 L 8.21875 -4.921875 C 13.6875 -5.109375 17.5625 -6.566406 19.84375 -9.296875 C 22.125 -12.035156 23.265625 -16.238281 23.265625 -21.90625 L 23.265625 -164.53125 C 23.265625 -170.363281 21.941406 -174.691406 19.296875 -177.515625 C 16.648438 -180.347656 12.5 -181.765625 6.84375 -181.765625 L 5.46875 -181.765625 L 5.46875 -186.703125 L 78.84375 -186.703125 Z M 78.84375 -181.765625 "/></g></g></g><g fill="#fffff6" fill-opacity="1"><g transform="translate(306.916891, 196.040253)"><g><path d="M 73.640625 -181.765625 L 70.625 -182.046875 C 66.789062 -182.046875 63.78125 -181.359375 61.59375 -179.984375 C 59.40625 -178.617188 58.3125 -176.75 58.3125 -174.375 C 58.3125 -172.550781 58.765625 -170.632812 59.671875 -168.625 C 60.585938 -166.625 61.046875 -165.53125 61.046875 -165.34375 L 90.890625 -87.875 L 115.515625 -153.84375 C 118.984375 -162.96875 120.71875 -169.445312 120.71875 -173.28125 C 120.71875 -176.195312 119.578125 -178.296875 117.296875 -179.578125 C 115.015625 -180.859375 111.503906 -181.585938 106.765625 -181.765625 L 106.765625 -186.703125 L 143.4375 -186.703125 L 143.4375 -181.765625 C 140.707031 -181.222656 138.65625 -180.175781 137.28125 -178.625 C 135.914062 -177.070312 134.410156 -174.378906 132.765625 -170.546875 C 131.128906 -166.710938 128.117188 -159.046875 123.734375 -147.546875 L 97.1875 -76.375 L 97.1875 -27.09375 C 97.1875 -18.34375 98.414062 -12.457031 100.875 -9.4375 C 103.34375 -6.425781 108.316406 -4.921875 115.796875 -4.921875 L 120.453125 -4.921875 L 120.453125 0 L 35.59375 0 L 35.59375 -4.921875 L 40.78125 -4.921875 C 47.539062 -4.921875 52.332031 -6.109375 55.15625 -8.484375 C 57.988281 -10.859375 59.40625 -15.515625 59.40625 -22.453125 L 59.40625 -68.71875 L 26.28125 -152.75 C 22.445312 -162.425781 19.753906 -168.90625 18.203125 -172.1875 C 16.648438 -175.46875 14.960938 -177.75 13.140625 -179.03125 C 11.316406 -180.3125 8.488281 -181.222656 4.65625 -181.765625 L 4.65625 -186.703125 L 73.640625 -186.703125 Z M 73.640625 -181.765625 "/></g></g></g><g fill="#fffff6" fill-opacity="1"><g transform="translate(445.704332, 196.040253)"><g><path d="M 143.171875 -135.78125 C 143.171875 -123.914062 140.203125 -113.875 134.265625 -105.65625 C 128.335938 -97.445312 120.082031 -91.882812 109.5 -88.96875 L 140.15625 -25.453125 C 143.082031 -19.429688 145.546875 -14.960938 147.546875 -12.046875 C 149.554688 -9.128906 151.5625 -7.210938 153.5625 -6.296875 C 155.570312 -5.378906 158.039062 -4.921875 160.96875 -4.921875 L 160.96875 0 L 113.328125 0 L 70.90625 -87.046875 L 64.0625 -87.046875 L 64.0625 -22.453125 C 64.0625 -15.328125 65.472656 -10.625 68.296875 -8.34375 C 71.128906 -6.0625 75.921875 -4.921875 82.671875 -4.921875 L 82.671875 0 L 8.484375 0 L 8.484375 -4.921875 C 15.054688 -4.921875 19.664062 -6.289062 22.3125 -9.03125 C 24.957031 -11.769531 26.28125 -16.332031 26.28125 -22.71875 L 26.28125 -163.96875 C 26.28125 -170.726562 24.863281 -175.382812 22.03125 -177.9375 C 19.207031 -180.488281 15.148438 -181.765625 9.859375 -181.765625 L 8.484375 -181.765625 L 8.484375 -186.703125 L 83.21875 -186.703125 C 101.101562 -186.703125 115.566406 -182.546875 126.609375 -174.234375 C 137.648438 -165.929688 143.171875 -153.113281 143.171875 -135.78125 Z M 70.078125 -95.265625 C 82.117188 -95.265625 90.738281 -98.503906 95.9375 -104.984375 C 101.144531 -111.460938 103.75 -122.273438 103.75 -137.421875 C 103.75 -152.203125 100.960938 -162.421875 95.390625 -168.078125 C 89.828125 -173.734375 80.203125 -176.5625 66.515625 -176.5625 L 64.0625 -176.5625 L 64.0625 -95.265625 Z M 70.078125 -95.265625 "/></g></g></g><g fill="#fffff6" fill-opacity="1"><g transform="translate(593.251511, 196.040253)"><g><path d="M 88.140625 -191.078125 C 101.460938 -191.078125 114.191406 -187.742188 126.328125 -181.078125 C 138.472656 -174.421875 148.515625 -163.742188 156.453125 -149.046875 C 164.390625 -134.359375 168.359375 -115.609375 168.359375 -92.796875 C 168.359375 -69.804688 164.25 -51.054688 156.03125 -36.546875 C 147.820312 -22.035156 137.648438 -11.628906 125.515625 -5.328125 C 113.378906 0.960938 101.101562 4.109375 88.6875 4.109375 C 75.738281 4.109375 63.191406 0.960938 51.046875 -5.328125 C 38.910156 -11.628906 28.78125 -21.988281 20.65625 -36.40625 C 12.539062 -50.820312 8.484375 -69.617188 8.484375 -92.796875 C 8.484375 -116.523438 12.632812 -135.734375 20.9375 -150.421875 C 29.238281 -165.117188 39.457031 -175.566406 51.59375 -181.765625 C 63.738281 -187.972656 75.921875 -191.078125 88.140625 -191.078125 Z M 50.640625 -94.4375 C 50.640625 -66.332031 53.148438 -44.566406 58.171875 -29.140625 C 63.191406 -13.722656 73.273438 -6.015625 88.421875 -6.015625 C 103.203125 -6.015625 113.191406 -13.5 118.390625 -28.46875 C 123.597656 -43.4375 126.203125 -65.609375 126.203125 -94.984375 C 126.203125 -124.191406 123.507812 -145.820312 118.125 -159.875 C 112.738281 -173.925781 102.742188 -180.953125 88.140625 -180.953125 C 77.191406 -180.953125 68.9375 -176.476562 63.375 -167.53125 C 57.8125 -158.59375 54.296875 -148.097656 52.828125 -136.046875 C 51.367188 -124.003906 50.640625 -110.132812 50.640625 -94.4375 Z M 50.640625 -94.4375 "/></g></g></g><g clip-path="url(#7c638b80f5)"><g fill="#fffff6" fill-opacity="1"><g transform="translate(760.508257, 196.040253)"><g><path d="M 130.3125 -69.53125 L 130.859375 -69.53125 L 130.859375 -164.53125 C 130.859375 -170.550781 129.53125 -174.925781 126.875 -177.65625 C 124.226562 -180.394531 119.804688 -181.765625 113.609375 -181.765625 L 113.609375 -186.703125 L 157.6875 -186.703125 L 157.6875 -181.765625 C 151.65625 -181.585938 147.453125 -180.359375 145.078125 -178.078125 C 142.710938 -175.796875 141.53125 -171.460938 141.53125 -165.078125 L 141.53125 2.46875 L 136.59375 2.46875 L 34.21875 -146.734375 L 33.671875 -146.734375 L 33.671875 -23.8125 C 33.671875 -17.0625 35.039062 -12.222656 37.78125 -9.296875 C 40.519531 -6.378906 45.265625 -4.921875 52.015625 -4.921875 L 52.015625 0 L 4.921875 0 L 4.921875 -4.921875 L 7.125 -4.921875 C 12.59375 -4.921875 16.695312 -6.109375 19.4375 -8.484375 C 22.175781 -10.859375 23.546875 -15.421875 23.546875 -22.171875 L 23.546875 -162.328125 L 11.765625 -177.9375 C 11.222656 -178.851562 10.265625 -179.675781 8.890625 -180.40625 C 7.523438 -181.132812 6.203125 -181.585938 4.921875 -181.765625 L 4.921875 -186.703125 L 49.828125 -186.703125 Z M 130.3125 -69.53125 "/></g></g></g></g></g></g><g transform="matrix(1, 0, 0, 1, 289, 771)"><g clip-path="url(#1ff3c1b353)"><g fill="#fffff6" fill-opacity="1"><g transform="translate(0.844393, 156.621924)"><g><path d="M 114.125 -108.234375 C 114.125 -98.773438 111.757812 -90.769531 107.03125 -84.21875 C 102.300781 -77.675781 95.71875 -73.242188 87.28125 -70.921875 L 111.734375 -20.296875 C 114.054688 -15.492188 116.015625 -11.925781 117.609375 -9.59375 C 119.210938 -7.269531 120.816406 -5.742188 122.421875 -5.015625 C 124.023438 -4.285156 125.988281 -3.921875 128.3125 -3.921875 L 128.3125 0 L 90.34375 0 L 56.515625 -69.390625 L 51.0625 -69.390625 L 51.0625 -17.890625 C 51.0625 -12.222656 52.1875 -8.476562 54.4375 -6.65625 C 56.695312 -4.832031 60.519531 -3.921875 65.90625 -3.921875 L 65.90625 0 L 6.765625 0 L 6.765625 -3.921875 C 12.003906 -3.921875 15.675781 -5.007812 17.78125 -7.1875 C 19.894531 -9.375 20.953125 -13.015625 20.953125 -18.109375 L 20.953125 -130.71875 C 20.953125 -136.09375 19.820312 -139.796875 17.5625 -141.828125 C 15.3125 -143.867188 12.078125 -144.890625 7.859375 -144.890625 L 6.765625 -144.890625 L 6.765625 -148.828125 L 66.34375 -148.828125 C 80.59375 -148.828125 92.117188 -145.515625 100.921875 -138.890625 C 109.722656 -132.273438 114.125 -122.054688 114.125 -108.234375 Z M 55.859375 -75.9375 C 65.460938 -75.9375 72.335938 -78.519531 76.484375 -83.6875 C 80.628906 -88.851562 82.703125 -97.472656 82.703125 -109.546875 C 82.703125 -121.328125 80.484375 -129.472656 76.046875 -133.984375 C 71.609375 -138.492188 63.9375 -140.75 53.03125 -140.75 L 51.0625 -140.75 L 51.0625 -75.9375 Z M 55.859375 -75.9375 "/></g></g></g><g fill="#fffff6" fill-opacity="1"><g transform="translate(122.829884, 156.621924)"><g><path d="M 103.4375 -106.265625 L 99.5 -106.265625 C 98.488281 -116.160156 95.875 -123.65625 91.65625 -128.75 C 87.4375 -133.84375 82.453125 -137.113281 76.703125 -138.5625 C 70.953125 -140.019531 64.078125 -140.75 56.078125 -140.75 L 48.4375 -140.75 L 48.4375 -79.65625 C 57.3125 -79.945312 63.785156 -82.960938 67.859375 -88.703125 C 71.929688 -94.453125 73.96875 -102.851562 73.96875 -113.90625 L 77.90625 -113.90625 L 77.90625 -38.1875 L 73.96875 -38.1875 C 73.96875 -49.101562 71.929688 -57.359375 67.859375 -62.953125 C 63.785156 -68.554688 57.3125 -71.429688 48.4375 -71.578125 L 48.4375 -24.4375 C 48.4375 -19.632812 48.835938 -16.066406 49.640625 -13.734375 C 50.441406 -11.410156 51.75 -9.882812 53.5625 -9.15625 C 55.382812 -8.4375 58.039062 -8.078125 61.53125 -8.078125 C 70.988281 -8.078125 78.695312 -9.3125 84.65625 -11.78125 C 90.625 -14.257812 95.535156 -18.1875 99.390625 -23.5625 C 103.253906 -28.945312 106.785156 -36.367188 109.984375 -45.828125 L 113.90625 -45.828125 L 106.703125 0 L 2.84375 0 L 2.84375 -3.921875 L 5.015625 -3.921875 C 9.378906 -3.921875 12.6875 -4.9375 14.9375 -6.96875 C 17.195312 -9.007812 18.328125 -12.796875 18.328125 -18.328125 L 18.328125 -130.5 C 18.328125 -136.019531 17.234375 -139.796875 15.046875 -141.828125 C 12.867188 -143.867188 9.234375 -144.890625 4.140625 -144.890625 L 2.84375 -144.890625 L 2.84375 -148.828125 L 103.4375 -148.828125 Z M 103.4375 -106.265625 "/></g></g></g><g fill="#fffff6" fill-opacity="1"><g transform="translate(233.467899, 156.621924)"><g><path d="M 42.765625 -152.3125 C 47.128906 -152.3125 50.910156 -151.765625 54.109375 -150.671875 C 57.316406 -149.585938 60.957031 -148.097656 65.03125 -146.203125 C 69.394531 -144.023438 72.445312 -142.9375 74.1875 -142.9375 C 76.226562 -142.9375 77.789062 -143.660156 78.875 -145.109375 C 79.96875 -146.566406 80.804688 -148.96875 81.390625 -152.3125 L 85.328125 -152.3125 L 86.640625 -103.875 L 82.703125 -103.875 C 80.523438 -116.09375 76.125 -125.875 69.5 -133.21875 C 62.882812 -140.570312 55.210938 -144.25 46.484375 -144.25 C 40.367188 -144.25 35.203125 -142.171875 30.984375 -138.015625 C 26.765625 -133.867188 24.65625 -128.671875 24.65625 -122.421875 C 24.65625 -117.910156 25.851562 -113.984375 28.25 -110.640625 C 30.65625 -107.296875 33.675781 -104.382812 37.3125 -101.90625 C 40.945312 -99.4375 46.039062 -96.457031 52.59375 -92.96875 C 61.03125 -88.457031 67.9375 -84.269531 73.3125 -80.40625 C 78.695312 -76.550781 83.28125 -71.421875 87.0625 -65.015625 C 90.851562 -58.617188 92.75 -50.769531 92.75 -41.46875 C 92.75 -32.882812 90.925781 -25.207031 87.28125 -18.4375 C 83.644531 -11.675781 78.625 -6.367188 72.21875 -2.515625 C 65.820312 1.335938 58.695312 3.265625 50.84375 3.265625 C 46.625 3.265625 42.804688 2.789062 39.390625 1.84375 C 35.972656 0.90625 31.789062 -0.507812 26.84375 -2.40625 C 22.039062 -4.4375 18.691406 -5.453125 16.796875 -5.453125 C 12.867188 -5.453125 10.253906 -2.546875 8.953125 3.265625 L 5.234375 3.265625 L 5.234375 -51.9375 L 9.171875 -51.9375 C 10.472656 -42.769531 13.015625 -34.617188 16.796875 -27.484375 C 20.578125 -20.359375 25.269531 -14.796875 30.875 -10.796875 C 36.476562 -6.796875 42.476562 -4.796875 48.875 -4.796875 C 55.28125 -4.796875 60.59375 -7.125 64.8125 -11.78125 C 69.03125 -16.4375 71.140625 -22.398438 71.140625 -29.671875 C 71.140625 -34.765625 70.265625 -38.800781 68.515625 -41.78125 C 66.773438 -44.769531 63.941406 -47.789062 60.015625 -50.84375 C 57.242188 -53.03125 51.0625 -57.03125 41.46875 -62.84375 L 36.65625 -65.6875 C 26.476562 -71.789062 18.660156 -78.148438 13.203125 -84.765625 C 7.742188 -91.390625 5.015625 -100.085938 5.015625 -110.859375 C 5.015625 -119.003906 6.613281 -126.203125 9.8125 -132.453125 C 13.019531 -138.710938 17.492188 -143.585938 23.234375 -147.078125 C 28.984375 -150.566406 35.492188 -152.3125 42.765625 -152.3125 Z M 42.765625 -152.3125 "/></g></g></g><g fill="#fffff6" fill-opacity="1"><g transform="translate(323.593137, 156.621924)"><g><path d="M 103.4375 -106.265625 L 99.5 -106.265625 C 98.488281 -116.160156 95.875 -123.65625 91.65625 -128.75 C 87.4375 -133.84375 82.453125 -137.113281 76.703125 -138.5625 C 70.953125 -140.019531 64.078125 -140.75 56.078125 -140.75 L 48.4375 -140.75 L 48.4375 -79.65625 C 57.3125 -79.945312 63.785156 -82.960938 67.859375 -88.703125 C 71.929688 -94.453125 73.96875 -102.851562 73.96875 -113.90625 L 77.90625 -113.90625 L 77.90625 -38.1875 L 73.96875 -38.1875 C 73.96875 -49.101562 71.929688 -57.359375 67.859375 -62.953125 C 63.785156 -68.554688 57.3125 -71.429688 48.4375 -71.578125 L 48.4375 -24.4375 C 48.4375 -19.632812 48.835938 -16.066406 49.640625 -13.734375 C 50.441406 -11.410156 51.75 -9.882812 53.5625 -9.15625 C 55.382812 -8.4375 58.039062 -8.078125 61.53125 -8.078125 C 70.988281 -8.078125 78.695312 -9.3125 84.65625 -11.78125 C 90.625 -14.257812 95.535156 -18.1875 99.390625 -23.5625 C 103.253906 -28.945312 106.785156 -36.367188 109.984375 -45.828125 L 113.90625 -45.828125 L 106.703125 0 L 2.84375 0 L 2.84375 -3.921875 L 5.015625 -3.921875 C 9.378906 -3.921875 12.6875 -4.9375 14.9375 -6.96875 C 17.195312 -9.007812 18.328125 -12.796875 18.328125 -18.328125 L 18.328125 -130.5 C 18.328125 -136.019531 17.234375 -139.796875 15.046875 -141.828125 C 12.867188 -143.867188 9.234375 -144.890625 4.140625 -144.890625 L 2.84375 -144.890625 L 2.84375 -148.828125 L 103.4375 -148.828125 Z M 103.4375 -106.265625 "/></g></g></g><g fill="#fffff6" fill-opacity="1"><g transform="translate(434.231135, 156.621924)"><g><path d="M 62.40625 -152.3125 L 99.5 -28.15625 C 101.539062 -21.601562 103.175781 -16.800781 104.40625 -13.75 C 105.644531 -10.695312 107.03125 -8.367188 108.5625 -6.765625 C 110.09375 -5.160156 112.164062 -4.210938 114.78125 -3.921875 L 114.78125 0 L 62.40625 0 L 62.40625 -3.921875 C 66.332031 -3.921875 69.132812 -4.359375 70.8125 -5.234375 C 72.488281 -6.109375 73.328125 -7.632812 73.328125 -9.8125 C 73.328125 -11.125 73.109375 -12.867188 72.671875 -15.046875 C 72.234375 -17.234375 71.796875 -19.054688 71.359375 -20.515625 L 67 -35.34375 L 29.890625 -35.34375 L 25.09375 -18.984375 C 23.925781 -15.347656 23.34375 -12.726562 23.34375 -11.125 C 23.34375 -8.65625 24.21875 -6.835938 25.96875 -5.671875 C 27.71875 -4.503906 30.484375 -3.921875 34.265625 -3.921875 L 34.265625 0 L 3.484375 0 L 3.484375 -3.921875 C 6.109375 -4.359375 8.253906 -5.269531 9.921875 -6.65625 C 11.597656 -8.039062 13.085938 -10.257812 14.390625 -13.3125 C 15.703125 -16.363281 17.378906 -21.09375 19.421875 -27.5 L 58.484375 -152.3125 Z M 64.59375 -43.421875 L 49.09375 -95.140625 L 48.65625 -95.140625 L 32.515625 -43.421875 Z M 64.59375 -43.421875 "/></g></g></g><g fill="#fffff6" fill-opacity="1"><g transform="translate(544.869168, 156.621924)"><g><path d="M 114.125 -108.234375 C 114.125 -98.773438 111.757812 -90.769531 107.03125 -84.21875 C 102.300781 -77.675781 95.71875 -73.242188 87.28125 -70.921875 L 111.734375 -20.296875 C 114.054688 -15.492188 116.015625 -11.925781 117.609375 -9.59375 C 119.210938 -7.269531 120.816406 -5.742188 122.421875 -5.015625 C 124.023438 -4.285156 125.988281 -3.921875 128.3125 -3.921875 L 128.3125 0 L 90.34375 0 L 56.515625 -69.390625 L 51.0625 -69.390625 L 51.0625 -17.890625 C 51.0625 -12.222656 52.1875 -8.476562 54.4375 -6.65625 C 56.695312 -4.832031 60.519531 -3.921875 65.90625 -3.921875 L 65.90625 0 L 6.765625 0 L 6.765625 -3.921875 C 12.003906 -3.921875 15.675781 -5.007812 17.78125 -7.1875 C 19.894531 -9.375 20.953125 -13.015625 20.953125 -18.109375 L 20.953125 -130.71875 C 20.953125 -136.09375 19.820312 -139.796875 17.5625 -141.828125 C 15.3125 -143.867188 12.078125 -144.890625 7.859375 -144.890625 L 6.765625 -144.890625 L 6.765625 -148.828125 L 66.34375 -148.828125 C 80.59375 -148.828125 92.117188 -145.515625 100.921875 -138.890625 C 109.722656 -132.273438 114.125 -122.054688 114.125 -108.234375 Z M 55.859375 -75.9375 C 65.460938 -75.9375 72.335938 -78.519531 76.484375 -83.6875 C 80.628906 -88.851562 82.703125 -97.472656 82.703125 -109.546875 C 82.703125 -121.328125 80.484375 -129.472656 76.046875 -133.984375 C 71.609375 -138.492188 63.9375 -140.75 53.03125 -140.75 L 51.0625 -140.75 L 51.0625 -75.9375 Z M 55.859375 -75.9375 "/></g></g></g><g fill="#fffff6" fill-opacity="1"><g transform="translate(666.854659, 156.621924)"><g><path d="M 68.078125 -152.3125 C 73.460938 -152.3125 78.007812 -151.691406 81.71875 -150.453125 C 85.425781 -149.222656 89.242188 -147.585938 93.171875 -145.546875 C 97.535156 -143.222656 100.957031 -142.0625 103.4375 -142.0625 C 105.039062 -142.0625 106.273438 -142.785156 107.140625 -144.234375 C 108.015625 -145.691406 108.742188 -148.382812 109.328125 -152.3125 L 113.25 -152.3125 L 113.25 -102.34375 L 109.328125 -102.34375 C 108.453125 -110.050781 106.34375 -116.992188 103 -123.171875 C 99.65625 -129.359375 95.507812 -134.195312 90.5625 -137.6875 C 85.613281 -141.1875 80.300781 -142.9375 74.625 -142.9375 C 67.5 -142.9375 61.242188 -140.316406 55.859375 -135.078125 C 50.765625 -129.984375 46.800781 -122.742188 43.96875 -113.359375 C 41.132812 -103.984375 39.71875 -91 39.71875 -74.40625 C 39.71875 -64.082031 40.40625 -53.863281 41.78125 -43.75 C 43.164062 -33.644531 46.332031 -25.097656 51.28125 -18.109375 C 53.894531 -14.472656 57.09375 -11.597656 60.875 -9.484375 C 64.664062 -7.378906 68.890625 -6.328125 73.546875 -6.328125 C 81.109375 -6.328125 87.6875 -8.328125 93.28125 -12.328125 C 98.882812 -16.328125 105.539062 -23.054688 113.25 -32.515625 L 113.25 -21.390625 C 107.875 -13.535156 101.179688 -7.460938 93.171875 -3.171875 C 85.171875 1.117188 76.519531 3.265625 67.21875 3.265625 C 55.28125 3.265625 44.691406 0.101562 35.453125 -6.21875 C 26.222656 -12.550781 19.023438 -21.351562 13.859375 -32.625 C 8.691406 -43.894531 6.109375 -56.804688 6.109375 -71.359375 C 6.109375 -86.484375 8.832031 -100.226562 14.28125 -112.59375 C 19.738281 -124.96875 27.195312 -134.679688 36.65625 -141.734375 C 46.113281 -148.785156 56.585938 -152.3125 68.078125 -152.3125 Z M 68.078125 -152.3125 "/></g></g></g><g fill="#fffff6" fill-opacity="1"><g transform="translate(777.492692, 156.621924)"><g><path d="M 62.84375 -144.890625 L 61.3125 -144.890625 C 52.875 -144.890625 48.65625 -140.382812 48.65625 -131.375 L 48.65625 -81.390625 L 92.53125 -81.390625 L 92.53125 -130.71875 C 92.53125 -135.800781 91.582031 -139.359375 89.6875 -141.390625 C 87.789062 -143.429688 84.660156 -144.597656 80.296875 -144.890625 L 78.34375 -144.890625 L 78.34375 -148.828125 L 136.609375 -148.828125 L 136.609375 -144.890625 L 134.421875 -144.890625 C 130.492188 -144.597656 127.546875 -143.394531 125.578125 -141.28125 C 123.617188 -139.175781 122.640625 -135.875 122.640625 -131.375 L 122.640625 -18.765625 C 122.640625 -13.234375 123.691406 -9.375 125.796875 -7.1875 C 127.910156 -5.007812 131.148438 -3.921875 135.515625 -3.921875 L 136.609375 -3.921875 L 136.609375 0 L 78.34375 0 L 78.34375 -3.921875 L 79.65625 -3.921875 C 84.164062 -3.921875 87.4375 -5.007812 89.46875 -7.1875 C 91.507812 -9.375 92.53125 -13.234375 92.53125 -18.765625 L 92.53125 -72.015625 L 48.65625 -72.015625 L 48.65625 -18.328125 C 48.65625 -13.378906 49.671875 -9.738281 51.703125 -7.40625 C 53.742188 -5.082031 56.875 -3.921875 61.09375 -3.921875 L 62.84375 -3.921875 L 62.84375 0 L 4.359375 0 L 4.359375 -3.921875 L 6.546875 -3.921875 C 10.910156 -4.066406 14 -5.226562 15.8125 -7.40625 C 17.632812 -9.59375 18.546875 -12.941406 18.546875 -17.453125 L 18.546875 -131.15625 C 18.546875 -135.800781 17.488281 -139.25 15.375 -141.5 C 13.269531 -143.757812 9.960938 -144.890625 5.453125 -144.890625 L 4.359375 -144.890625 L 4.359375 -148.828125 L 62.84375 -148.828125 Z M 62.84375 -144.890625 "/></g></g></g></g></g></svg>